<?xml version="1.0" encoding="UTF-8" standalone="no"?>
<svg width="32" height="32" fill="none" viewBox="0 0 32 32" xmlns="http://www.w3.org/2000/svg" xmlns:svg="http://www.w3.org/2000/svg">
  <path fill="#ca0b4a" d="M 27.341719,4.7900039 C 26.528886,3.9771793 25.024317,3.934156 24.06464,4.4258983 23.281587,4.6947829 22.456654,4.9980141 21.615326,5.3380378 l 0.0089,0.00906 c -2.210467,0.9389336 -5.516298,2.6080526 -8.162147,5.0644462 -1.85739,1.724415 -2.921634,3.051932 -3.6344236,4.261012 l -4.5470933,1.67373 c -0.5878731,0.216447 -0.7533492,0.969376 -0.3103974,1.41231 3.1861931,3.186193 6.3723693,6.372386 9.5585623,9.55858 0.442935,0.442934 1.195864,0.277467 1.412309,-0.310423 l 1.891032,-5.137302 c 1.380642,-0.822446 2.765918,-1.858163 4.212384,-3.30463 2.051522,-2.051522 3.746792,-5.629243 4.731787,-8.030332 l 0.0071,0.0072 C 27.127591,9.6915663 27.434237,8.8579552 27.705782,8.0670841 28.19755,7.1073985 28.34079,5.7890912 27.341719,4.7900039 Z" id="path1" style="stroke-width:0.858234"/>
  <path fill="#f4f4f4" d="m 22.276939,6.0042161 c -2.16009,0.8922198 -5.559726,2.5564555 -8.230806,5.0362879 -1.728998,1.605155 -2.721374,2.827451 -3.38085,3.904449 -0.660016,1.077941 -1.0084931,2.043197 -1.4270538,3.210223 l -0.00214,0.006 c -0.1460456,0.407232 -0.3008968,0.839009 -0.479358,1.299795 l 3.9096248,3.909685 c 3.091787,-1.269071 5.785011,-2.4264 8.771321,-5.412709 2.018052,-2.018052 3.723791,-5.700648 4.681065,-8.0855251 z" id="path2" style="stroke-width:0.858234"/>
  <path fill="#9b9b9b" d="m 23.331794,11.913586 c 0,1.540443 -1.248816,2.78926 -2.789261,2.78926 -1.540529,0 -2.78926,-1.248817 -2.78926,-2.78926 0,-1.540471 1.248731,-2.7892608 2.78926,-2.7892608 1.540445,0 2.789261,1.2487898 2.789261,2.7892608 z" id="path3" style="stroke-width:0.858234"/>
  <path fill="#83cbff" d="m 22.47356,11.913586 c 0,1.066441 -0.864585,1.931025 -1.931027,1.931025 -1.066526,0 -1.931025,-0.864584 -1.931025,-1.931025 0,-1.066442 0.864499,-1.9310269 1.931025,-1.9310269 1.066442,0 1.931027,0.8645849 1.931027,1.9310269 z" id="path4" style="stroke-width:0.858234"/>
  <path fill="#ff8257" d="m 4.3849254,27.671445 c -0.6068658,-0.606857 -0.363402,-4.815379 1.7821654,-5.673611 0,0 2.1455847,-0.858235 3.5282081,0.515369 1.3826321,1.373688 0.7629521,2.91748 0.7629521,2.91748 -0.6068394,1.820571 -3.1904237,2.54432 -3.4938438,2.240849 -0.1675786,-0.167527 0.134185,-0.47263 0,-0.606857 -0.1341762,-0.134143 -0.3413624,0.01897 -0.9102942,0.30347 -0.4045715,0.202286 -1.4264448,0.546094 -1.6691876,0.3033 z" id="path5" style="stroke-width:0.858234"/>
  <path fill="#533566" d="m 7.5064678,20.33346 c 0.5027362,-0.502753 1.3178438,-0.502753 1.8205886,0 l 3.0342776,3.034286 c 0.502753,0.502753 0.502753,1.317818 0,1.820572 -0.502668,0.502753 -1.317819,0.502753 -1.820555,0 L 7.5064678,22.154032 c -0.5027448,-0.502754 -0.5027448,-1.317819 0,-1.820572 z" id="path6" style="stroke-width:0.858234"/>
  <path fill="#f92f60" d="m 15.613954,18.326309 c 0.379254,-1.030396 -0.622477,-2.032127 -1.652872,-1.652873 l -6.1057422,2.247543 c -0.5878729,0.216446 -0.753349,0.969375 -0.3103974,1.412309 l 4.4091596,4.409176 c 0.442935,0.442935 1.195863,0.277468 1.412309,-0.310422 z" id="path7" style="stroke-width:0.858234"/>
</svg>
