<?xml version="1.0" encoding="UTF-8" standalone="no"?><svg width="200" height="200" viewBox="0 0 20 20" xmlns="http://www.w3.org/2000/svg" xmlns:svg="http://www.w3.org/2000/svg"><g fill="none" id="g2" transform="matrix(0.83583909,0,0,0.83583909,1.6415422,1.640618)"><path fill="url(#SVGguSD7d6K)" fill-rule="evenodd" d="m 8.293,0.293 a 1,1 0 0 1 1.414,0 l 2.5,2.5 a 1,1 0 0 1 0,1.414 l -2.5,2.5 A 1,1 0 0 1 8.293,5.293 L 8.994,4.592 A 5.502,5.502 0 0 0 6.486,14.232 1,1 0 0 1 5.207,15.769 7.501,7.501 0 0 1 9.135,2.549 L 8.293,1.707 a 1,1 0 0 1 0,-1.414 m 5.12,4.085 A 1,1 0 0 1 14.822,4.255 7.501,7.501 0 0 1 10.865,17.45 l 0.842,0.843 a 1,1 0 0 1 -1.414,1.414 l -2.5,-2.5 a 1,1 0 0 1 0,-1.414 l 2.5,-2.5 a 1,1 0 0 1 1.414,1.414 l -0.701,0.701 a 5.502,5.502 0 0 0 2.53,-9.621 1,1 0 0 1 -0.123,-1.41" clip-rule="evenodd" id="path1" style="fill:url(#SVGguSD7d6K)"/><defs id="defs2"><linearGradient id="SVGguSD7d6K" x1="14" x2="6" y1="16.5" y2="0" gradientUnits="userSpaceOnUse"><stop stop-color="#22918B" id="stop1"/><stop offset="1" stop-color="#20AC9D" id="stop2"/></linearGradient></defs></g></svg>
